<svg width="75" height="70" fill="none" xmlns="http://www.w3.org/2000/svg"><path d="M70.8 46.7h-66A4.2 4.2 0 0 0 .7 51v3.5c0 2.4 1.9 4.3 4.1 4.3h1v1.1A10 10 0 0 0 15.2 70H60c5.4 0 9.7-4.5 9.7-10.1v-1.1h.9c2.3 0 4-1.9 4-4.3V51a4 4 0 0 0-3.8-4.3Zm-4 13.2c0 3.9-3 7-6.7 7H15.3a7 7 0 0 1-6.7-7v-1.1H67v1.1Zm5.2-5.4c0 .7-.6 1.3-1.2 1.3h-66c-.8 0-1.3-.6-1.3-1.3V51c0-.7.6-1.3 1.2-1.3h66c.7 0 1.2.6 1.2 1.3v3.5ZM16.3 38.4l5.5 4.1 5.3-4.1 5.3 4.1 5.3-4.1 5.4 4.1 5.3-4.1 5.3 4.1 5.4-4.1 5.4 4.1 6.2-4.7-1.7-2.5-4.5 3.4-5.4-4.1-5.4 4.1-5.3-4.1-5.3 4.1-5.4-4.1-5.3 4.1-5.3-4.1-5.3 4.1-5.5-4.1-5.3 4.1-4.5-3.4-1.7 2.5 6.2 4.7 5.3-4.1ZM8.7 31.5h61V28.4C69.2 12.7 55 0 37.8 0S6.5 12.7 5.8 28.5v1.2l.1 1.8h3ZM37.7 3C53.5 3 66.4 14.3 67 28.5H8.7C9.3 14.4 22.2 3 37.7 3Z" fill="#83B3D3"/><path d="M37.8 17.3a2 2 0 0 0 1.9-2 2 2 0 0 0-2-2 2 2 0 0 0-1.8 2c0 1.1.8 2 1.9 2ZM30 12.2a2 2 0 0 0 1.9-2 2 2 0 0 0-2-2 2 2 0 0 0-1.8 2c0 1.1.8 2 1.9 2ZM45.5 12.2a2 2 0 0 0 2-2 2 2 0 0 0-2-2 2 2 0 0 0-1.9 2c0 1.1.9 2 2 2Z" fill="#83B3D3"/></svg>