<svg width="75" height="72" fill="none" xmlns="http://www.w3.org/2000/svg"><path d="M29.6 65h16V41.2h-16V65Zm3-20.9h10v18h-10v-18Z" fill="#83B3D3"/><path d="m72.9 39.3 2.1-2.1-10-9.9V0H51.2v13.6L37.4 0 0 37.2l2.1 2.1 7.8-7.8v37.6H6V72h64.2v-2.9H65V31.5l7.9 7.8ZM62 69.1H13V28.5L37.4 4.1 62 28.5v40.6Zm0-44.7-7.9-7.9V2.9h8v21.5Z" fill="#83B3D3"/><path d="M29.8 27.1c0 4.3 3.5 7.7 7.8 7.7s7.8-3.5 7.8-7.7c0-4.3-3.5-7.7-7.8-7.7a7.7 7.7 0 0 0-7.8 7.7Zm7.9-5a5 5 0 0 1 5 4.9 5 5 0 0 1-5 4.9 5 5 0 0 1-5-4.9 5 5 0 0 1 5-4.9ZM20 41.2h-3v3.9h3v-3.9ZM25.9 41.2h-3v3.9h3v-3.9ZM20 47.2h-3v3.9h3v-3.9ZM25.9 47.2h-3v3.9h3v-3.9ZM52 41.2h-3v3.9h3v-3.9ZM58 41.2h-3v3.9h3v-3.9ZM52 47.2h-3v3.9h3v-3.9ZM58 47.2h-3v3.9h3v-3.9Z" fill="#83B3D3"/></svg>